<svg width="414" height="724" viewBox="0 0 414 724" fill="none" xmlns="http://www.w3.org/2000/svg">
<path d="M-71.0513 74.4238C-78.7659 107.543 -81.6759 193.572 -31.5998 272.732C18.4764 351.893 113.756 384.927 155.136 391.549C207.347 408.087 338.699 407.888 446.429 274.79C581.09 108.417 354.82 34.4652 286.477 238.749C218.134 443.033 438.444 545.906 469.478 528.039" stroke="#FFCA33" stroke-width="6"/>
<path opacity="0.05" d="M-89.3199 111.967C-97.0344 145.086 -99.9445 231.115 -49.8683 310.276C0.207823 389.437 95.4875 422.47 136.868 429.092C189.078 445.63 320.431 445.431 428.16 312.333C562.822 145.961 336.551 72.0087 268.208 276.293C199.865 480.576 420.175 583.449 451.21 565.582" stroke="#B78E19" stroke-width="6"/>
</svg>
