<svg
              width="97"
              height="124"
              viewBox="0 0 97 124"
              fill="none"
              xmlns="http://www.w3.org/2000/svg"
            >
              <path
                fill-rule="evenodd"
                clip-rule="evenodd"
                d="M50.8829 69.56C70.1895 69.56 85.8405 53.9885 85.8405 34.78C85.8405 15.5715 70.1895 0 50.8829 0C31.5764 0 15.9253 15.5715 15.9253 34.78C15.9253 53.9885 31.5764 69.56 50.8829 69.56ZM50.8829 60.68C65.2601 60.68 76.9152 49.0842 76.9152 34.78C76.9152 20.4758 65.2601 8.88 50.8829 8.88C36.5057 8.88 24.8506 20.4758 24.8506 34.78C24.8506 49.0842 36.5057 60.68 50.8829 60.68Z"
                fill="white"
              />
              <path
                fill-rule="evenodd"
                clip-rule="evenodd"
                d="M42.1975 32.5358C36.6974 34.115 36.8597 37.33 31.852 44.273C33.8125 35.4132 35.84 33.7693 33.1959 28.6941C30.8684 24.2263 24.3423 24.4861 23.0614 29.632C18.5719 26.7773 13.6588 31.0578 15.0611 35.8927C16.6484 41.3618 19.7034 41.172 26.6808 46.1532C17.7758 44.2037 16.3019 42.2158 11.1997 44.8476C6.71023 47.1622 6.97033 53.6551 12.1424 54.9296C9.27213 59.3962 13.5755 64.2833 18.4341 62.8892C23.634 61.3959 24.3413 57.1675 28.6375 50.8423C27.3391 53.3728 25.2305 57.5695 22.8301 62.1026C20.2887 66.9017 20.043 69.7656 19.9628 72.2941C19.934 73.1901 20.1993 73.6575 20.704 73.6156H21.9295C22.4343 73.5726 22.6758 73.1768 22.7211 72.5477C22.8979 70.1073 22.7375 67.8765 24.5962 62.746C26.1321 58.5043 27.5375 53.652 28.6375 50.8423C26.7346 58.5708 24.9447 61.9523 27.4347 66.7319C29.7622 71.1986 36.2893 70.9388 37.5692 65.793C42.0587 68.6487 46.9717 64.3682 45.5695 59.5333C43.9822 54.0622 40.1743 54.2061 33.1959 49.2249C42.1008 51.1744 44.3297 53.2092 49.4319 50.5784C53.9214 48.2617 53.6602 41.7699 48.4891 40.4954C51.3584 36.0287 47.055 31.1407 42.1975 32.5358Z"
                fill="white"
                stroke="#00A134"
                stroke-width="0.6"
              />
              <path
                d="M18.8372 119C19.1305 119 19.3839 119.107 19.5972 119.32C19.8105 119.533 19.9172 119.787 19.9172 120.08V122.92C19.9172 123.213 19.8105 123.467 19.5972 123.68C19.3839 123.893 19.1305 124 18.8372 124H1.31719C1.02385 124 0.770521 123.893 0.557188 123.68C0.343854 123.467 0.237188 123.213 0.237188 122.92V97.08C0.237188 96.7867 0.343854 96.5333 0.557188 96.32C0.770521 96.1067 1.02385 96 1.31719 96H4.55719C4.85052 96 5.10385 96.1067 5.31719 96.32C5.53052 96.5333 5.63719 96.7867 5.63719 97.08V119H18.8372ZM42.3928 119C42.6861 119 42.9395 119.107 43.1528 119.32C43.3661 119.533 43.4728 119.787 43.4728 120.08V122.92C43.4728 123.213 43.3661 123.467 43.1528 123.68C42.9395 123.893 42.6861 124 42.3928 124H24.8328C24.5395 124 24.2861 123.893 24.0728 123.68C23.8595 123.467 23.7528 123.213 23.7528 122.92V97.08C23.7528 96.7867 23.8595 96.5333 24.0728 96.32C24.2861 96.1067 24.5395 96 24.8328 96H42.0728C42.3661 96 42.6195 96.1067 42.8328 96.32C43.0461 96.5333 43.1528 96.7867 43.1528 97.08V99.92C43.1528 100.213 43.0461 100.467 42.8328 100.68C42.6195 100.893 42.3661 101 42.0728 101H29.1528V107.36H41.1928C41.4861 107.36 41.7395 107.467 41.9528 107.68C42.1661 107.893 42.2728 108.147 42.2728 108.44V111.28C42.2728 111.573 42.1661 111.827 41.9528 112.04C41.7395 112.253 41.4861 112.36 41.1928 112.36H29.1528V119H42.3928ZM69.7203 96C70.0136 96 70.267 96.1067 70.4803 96.32C70.6936 96.5333 70.8003 96.7867 70.8003 97.08C70.8003 97.2133 70.7736 97.3333 70.7203 97.44L61.2403 114.12V122.92C61.2403 123.213 61.1336 123.467 60.9203 123.68C60.707 123.893 60.4536 124 60.1603 124H56.9603C56.667 124 56.4136 123.893 56.2003 123.68C55.987 123.467 55.8803 123.213 55.8803 122.92V114.12L46.4003 97.44C46.347 97.3333 46.3203 97.2133 46.3203 97.08C46.3203 96.7867 46.427 96.5333 46.6403 96.32C46.8536 96.1067 47.107 96 47.4003 96H50.4003C50.9336 96 51.3336 96.1333 51.6003 96.4C51.867 96.6667 52.027 96.8667 52.0803 97L58.5603 108.32L65.0403 97C65.0936 96.8667 65.2536 96.6667 65.5203 96.4C65.787 96.1333 66.187 96 66.7203 96H69.7203ZM84.9988 96C85.4254 96 85.7454 96.12 85.9588 96.36C86.1721 96.5733 86.3588 96.9067 86.5188 97.36L96.3188 122.64C96.3454 122.72 96.3588 122.813 96.3588 122.92C96.3588 123.213 96.2521 123.467 96.0388 123.68C95.8254 123.893 95.5721 124 95.2788 124H92.3988C91.8654 124 91.4921 123.893 91.2788 123.68C91.0654 123.44 90.9188 123.213 90.8388 123L89.1188 118.56H76.4788L74.7588 123C74.6788 123.213 74.5321 123.44 74.3188 123.68C74.1054 123.893 73.7321 124 73.1988 124H70.3188C70.0254 124 69.7721 123.893 69.5588 123.68C69.3454 123.467 69.2388 123.213 69.2388 122.92C69.2388 122.813 69.2521 122.72 69.2788 122.64L79.0788 97.36C79.2388 96.9067 79.4254 96.5733 79.6388 96.36C79.8521 96.12 80.1721 96 80.5988 96H84.9988ZM87.1988 113.56L82.7988 102.16L78.3988 113.56H87.1988Z"
                fill="white"
              />
            </svg>